<svg width="94" height="40" viewBox="0 0 94 40" fill="none" xmlns="http://www.w3.org/2000/svg">
<rect y="8.25928" width="90.5662" height="31.5112" rx="10" transform="rotate(-5.23242 0 8.25928)" fill="#F72585"/>
<path d="M14.7536 26.8276C14.4736 26.8276 14.227 26.7276 14.0136 26.5276C13.8136 26.3276 13.7136 26.081 13.7136 25.7876V12.2476C13.7136 11.9543 13.8136 11.7076 14.0136 11.5076C14.227 11.3076 14.4736 11.2076 14.7536 11.2076C15.047 11.2076 15.2936 11.3076 15.4936 11.5076C15.6936 11.7076 15.7936 11.9543 15.7936 12.2476V18.2476L22.4136 11.6276C22.5736 11.4676 22.7203 11.361 22.8536 11.3076C22.987 11.241 23.127 11.2076 23.2736 11.2076C23.607 11.2076 23.847 11.3076 23.9936 11.5076C24.1403 11.7076 24.1936 11.9476 24.1536 12.2276C24.1136 12.4943 23.987 12.741 23.7736 12.9676L18.6736 18.0876L23.8736 25.1676C24.0336 25.3943 24.1003 25.641 24.0736 25.9076C24.047 26.161 23.9536 26.381 23.7936 26.5676C23.6336 26.741 23.4203 26.8276 23.1536 26.8276C22.7803 26.8276 22.4936 26.681 22.2936 26.3876L17.2336 19.5276L15.7936 20.9676V25.7876C15.7936 26.081 15.6936 26.3276 15.4936 26.5276C15.2936 26.7276 15.047 26.8276 14.7536 26.8276ZM30.2221 26.9076C29.2487 26.9076 28.3754 26.6676 27.6021 26.1876C26.8287 25.6943 26.2154 25.0343 25.7621 24.2076C25.3221 23.3676 25.1021 22.421 25.1021 21.3676C25.1021 20.3143 25.3421 19.3676 25.8221 18.5276C26.3154 17.6876 26.9754 17.0276 27.8021 16.5476C28.6421 16.0543 29.5821 15.8076 30.6221 15.8076C31.6621 15.8076 32.5954 16.0543 33.4221 16.5476C34.2487 17.0276 34.9021 17.6876 35.3821 18.5276C35.8754 19.3676 36.1221 20.3143 36.1221 21.3676H35.3421C35.3421 22.421 35.1154 23.3676 34.6621 24.2076C34.2221 25.0343 33.6154 25.6943 32.8421 26.1876C32.0687 26.6676 31.1954 26.9076 30.2221 26.9076ZM30.6221 25.1076C31.3021 25.1076 31.9087 24.9476 32.4421 24.6276C32.9754 24.2943 33.3954 23.8476 33.7021 23.2876C34.0087 22.7143 34.1621 22.0743 34.1621 21.3676C34.1621 20.6476 34.0087 20.0076 33.7021 19.4476C33.3954 18.8743 32.9754 18.4276 32.4421 18.1076C31.9087 17.7743 31.3021 17.6076 30.6221 17.6076C29.9554 17.6076 29.3487 17.7743 28.8021 18.1076C28.2687 18.4276 27.8421 18.8743 27.5221 19.4476C27.2154 20.0076 27.0621 20.6476 27.0621 21.3676C27.0621 22.0743 27.2154 22.7143 27.5221 23.2876C27.8421 23.8476 28.2687 24.2943 28.8021 24.6276C29.3487 24.9476 29.9554 25.1076 30.6221 25.1076ZM35.1021 26.8476C34.8087 26.8476 34.5621 26.7543 34.3621 26.5676C34.1754 26.3676 34.0821 26.121 34.0821 25.8276V22.7676L34.4621 20.6476L36.1221 21.3676V25.8276C36.1221 26.121 36.0221 26.3676 35.8221 26.5676C35.6354 26.7543 35.3954 26.8476 35.1021 26.8476ZM40.1382 19.9876C40.1382 19.1876 40.3315 18.4743 40.7182 17.8476C41.1182 17.2076 41.6515 16.701 42.3182 16.3276C42.9848 15.9543 43.7182 15.7676 44.5182 15.7676C45.3182 15.7676 45.9115 15.901 46.2982 16.1676C46.6982 16.421 46.8515 16.7276 46.7582 17.0876C46.7182 17.2743 46.6382 17.421 46.5182 17.5276C46.4115 17.621 46.2848 17.681 46.1382 17.7076C45.9915 17.7343 45.8315 17.7276 45.6582 17.6876C44.8048 17.5143 44.0382 17.501 43.3582 17.6476C42.6782 17.7943 42.1382 18.0676 41.7382 18.4676C41.3515 18.8676 41.1582 19.3743 41.1582 19.9876H40.1382ZM40.1582 26.8276C39.8382 26.8276 39.5915 26.7476 39.4182 26.5876C39.2448 26.4143 39.1582 26.161 39.1582 25.8276V16.8876C39.1582 16.5676 39.2448 16.321 39.4182 16.1476C39.5915 15.9743 39.8382 15.8876 40.1582 15.8876C40.4915 15.8876 40.7382 15.9743 40.8982 16.1476C41.0715 16.3076 41.1582 16.5543 41.1582 16.8876V25.8276C41.1582 26.1476 41.0715 26.3943 40.8982 26.5676C40.7382 26.741 40.4915 26.8276 40.1582 26.8276ZM63.2447 26.8476C62.9514 26.8476 62.7047 26.7543 62.5047 26.5676C62.3181 26.3676 62.2247 26.121 62.2247 25.8276V20.1076C62.2247 19.2676 62.0181 18.6476 61.6047 18.2476C61.1914 17.8343 60.6514 17.6276 59.9847 17.6276C59.2914 17.6276 58.7181 17.8676 58.2647 18.3476C57.8247 18.8276 57.6047 19.441 57.6047 20.1876H55.9447C55.9447 19.321 56.1314 18.561 56.5047 17.9076C56.8781 17.241 57.3981 16.721 58.0647 16.3476C58.7447 15.9743 59.5181 15.7876 60.3847 15.7876C61.1447 15.7876 61.8181 15.9543 62.4047 16.2876C62.9914 16.621 63.4447 17.1143 63.7647 17.7676C64.0981 18.4076 64.2647 19.1876 64.2647 20.1076V25.8276C64.2647 26.121 64.1714 26.3676 63.9847 26.5676C63.7981 26.7543 63.5514 26.8476 63.2447 26.8476ZM49.9047 26.8476C49.6114 26.8476 49.3647 26.7543 49.1647 26.5676C48.9781 26.3676 48.8847 26.121 48.8847 25.8276V16.9276C48.8847 16.621 48.9781 16.3743 49.1647 16.1876C49.3647 16.001 49.6114 15.9076 49.9047 15.9076C50.2114 15.9076 50.4581 16.001 50.6447 16.1876C50.8314 16.3743 50.9247 16.621 50.9247 16.9276V25.8276C50.9247 26.121 50.8314 26.3676 50.6447 26.5676C50.4581 26.7543 50.2114 26.8476 49.9047 26.8476ZM56.5847 26.8476C56.2914 26.8476 56.0447 26.7543 55.8447 26.5676C55.6581 26.3676 55.5647 26.121 55.5647 25.8276V20.1076C55.5647 19.2676 55.3581 18.6476 54.9447 18.2476C54.5314 17.8343 53.9914 17.6276 53.3247 17.6276C52.6314 17.6276 52.0581 17.8676 51.6047 18.3476C51.1514 18.8276 50.9247 19.441 50.9247 20.1876H49.6647C49.6647 19.321 49.8381 18.561 50.1847 17.9076C50.5314 17.241 51.0114 16.721 51.6247 16.3476C52.2381 15.9743 52.9381 15.7876 53.7247 15.7876C54.4847 15.7876 55.1581 15.9543 55.7447 16.2876C56.3314 16.621 56.7847 17.1143 57.1047 17.7676C57.4381 18.4076 57.6047 19.1876 57.6047 20.1076V25.8276C57.6047 26.121 57.5114 26.3676 57.3247 26.5676C57.1381 26.7543 56.8914 26.8476 56.5847 26.8476ZM72.2142 26.9076C71.2409 26.9076 70.3676 26.6676 69.5942 26.1876C68.8209 25.6943 68.2076 25.0343 67.7542 24.2076C67.3142 23.3676 67.0942 22.421 67.0942 21.3676C67.0942 20.3143 67.3342 19.3676 67.8142 18.5276C68.3076 17.6876 68.9676 17.0276 69.7942 16.5476C70.6342 16.0543 71.5742 15.8076 72.6142 15.8076C73.6542 15.8076 74.5876 16.0543 75.4142 16.5476C76.2409 17.0276 76.8942 17.6876 77.3742 18.5276C77.8676 19.3676 78.1142 20.3143 78.1142 21.3676H77.3342C77.3342 22.421 77.1076 23.3676 76.6542 24.2076C76.2142 25.0343 75.6076 25.6943 74.8342 26.1876C74.0609 26.6676 73.1876 26.9076 72.2142 26.9076ZM72.6142 25.1076C73.2942 25.1076 73.9009 24.9476 74.4342 24.6276C74.9676 24.2943 75.3876 23.8476 75.6942 23.2876C76.0009 22.7143 76.1542 22.0743 76.1542 21.3676C76.1542 20.6476 76.0009 20.0076 75.6942 19.4476C75.3876 18.8743 74.9676 18.4276 74.4342 18.1076C73.9009 17.7743 73.2942 17.6076 72.6142 17.6076C71.9476 17.6076 71.3409 17.7743 70.7942 18.1076C70.2609 18.4276 69.8342 18.8743 69.5142 19.4476C69.2076 20.0076 69.0542 20.6476 69.0542 21.3676C69.0542 22.0743 69.2076 22.7143 69.5142 23.2876C69.8342 23.8476 70.2609 24.2943 70.7942 24.6276C71.3409 24.9476 71.9476 25.1076 72.6142 25.1076ZM77.0942 26.8476C76.8009 26.8476 76.5542 26.7543 76.3542 26.5676C76.1676 26.3676 76.0742 26.121 76.0742 25.8276V22.7676L76.4542 20.6476L78.1142 21.3676V25.8276C78.1142 26.121 78.0142 26.3676 77.8142 26.5676C77.6276 26.7543 77.3876 26.8476 77.0942 26.8476Z" fill="white"/>
</svg>
